<svg width="32" height="32" viewBox="0 0 32 32" fill="none" xmlns="http://www.w3.org/2000/svg">
<path fill-rule="evenodd" clip-rule="evenodd" d="M18.4435 5.32306C17.4835 3.23346 14.5155 3.23346 13.5571 5.32306C13.2742 5.93948 12.7687 6.42616 12.142 6.6855C11.5153 6.94485 10.8137 6.9577 10.1779 6.72146C8.02275 5.92146 5.92195 8.02226 6.72195 10.1775C6.95818 10.8132 6.94534 11.5148 6.68599 12.1415C6.42665 12.7682 5.93997 13.2737 5.32355 13.5567C3.23395 14.5167 3.23395 17.4847 5.32355 18.4431C5.93997 18.726 6.42665 19.2315 6.68599 19.8582C6.94534 20.4849 6.95818 21.1865 6.72195 21.8223C5.92195 23.9775 8.02275 26.0767 10.1779 25.2783C10.8137 25.042 11.5153 25.0549 12.142 25.3142C12.7687 25.5736 13.2742 26.0602 13.5571 26.6767C14.5171 28.7663 17.4851 28.7663 18.4435 26.6767C18.7265 26.0602 19.232 25.5736 19.8587 25.3142C20.4854 25.0549 21.187 25.042 21.8227 25.2783C23.9779 26.0767 26.0787 23.9775 25.2787 21.8223C25.0425 21.1865 25.0554 20.4849 25.3147 19.8582C25.574 19.2315 26.0607 18.726 26.6771 18.4431C28.7667 17.4831 28.7667 14.5151 26.6771 13.5567C26.0607 13.2737 25.574 12.7682 25.3147 12.1415C25.0554 11.5148 25.0425 10.8132 25.2787 10.1775C26.0787 8.02226 23.9779 5.92146 21.8227 6.72146C21.187 6.9577 20.4854 6.94485 19.8587 6.6855C19.232 6.42616 18.7265 5.93948 18.4435 5.32306ZM14.4003 13.1999C14.4003 13.6242 14.2318 14.0312 13.9317 14.3312C13.6317 14.6313 13.2247 14.7999 12.8003 14.7999C12.376 14.7999 11.969 14.6313 11.669 14.3312C11.3689 14.0312 11.2003 13.6242 11.2003 13.1999C11.2003 12.7755 11.3689 12.3685 11.669 12.0685C11.969 11.7684 12.376 11.5999 12.8003 11.5999C13.2247 11.5999 13.6317 11.7684 13.9317 12.0685C14.2318 12.3685 14.4003 12.7755 14.4003 13.1999ZM20.0483 14.0479L13.6483 20.4479C13.5385 20.5658 13.406 20.6603 13.2588 20.7259C13.1116 20.7915 12.9527 20.8268 12.7916 20.8296C12.6305 20.8324 12.4704 20.8028 12.321 20.7425C12.1716 20.6821 12.0358 20.5923 11.9219 20.4783C11.8079 20.3644 11.7181 20.2286 11.6578 20.0792C11.5974 19.9298 11.5678 19.7697 11.5706 19.6086C11.5734 19.4475 11.6087 19.2886 11.6743 19.1414C11.7399 18.9942 11.8344 18.8617 11.9523 18.7519L18.3523 12.3519C18.4622 12.234 18.5947 12.1394 18.7419 12.0738C18.8891 12.0082 19.048 11.973 19.2091 11.9701C19.3702 11.9673 19.5303 11.9969 19.6797 12.0573C19.8291 12.1176 19.9649 12.2074 20.0788 12.3214C20.1928 12.4353 20.2826 12.5711 20.3429 12.7205C20.4033 12.8699 20.4329 13.03 20.4301 13.1911C20.4273 13.3522 20.392 13.5111 20.3264 13.6583C20.2608 13.8055 20.1662 13.938 20.0483 14.0479ZM20.8003 19.5999C20.8003 20.0242 20.6318 20.4312 20.3317 20.7312C20.0317 21.0313 19.6247 21.1999 19.2003 21.1999C18.776 21.1999 18.369 21.0313 18.069 20.7312C17.7689 20.4312 17.6003 20.0242 17.6003 19.5999C17.6003 19.1755 17.7689 18.7685 18.069 18.4685C18.369 18.1684 18.776 17.9999 19.2003 17.9999C19.6247 17.9999 20.0317 18.1684 20.3317 18.4685C20.6318 18.7685 20.8003 19.1755 20.8003 19.5999Z" fill="black"/>
</svg>
