<svg width="20" height="20" viewBox="0 0 20 20" fill="none" xmlns="http://www.w3.org/2000/svg">
<path d="M6.87267 8.12217H3.12383C2.95812 8.12217 2.7992 8.0563 2.68203 7.93917C2.56485 7.82198 2.49902 7.66305 2.49902 7.49736V3.74851C2.49902 3.5828 2.56485 3.42388 2.68203 3.3067C2.7992 3.18953 2.95812 3.1237 3.12383 3.1237C3.28954 3.1237 3.44846 3.18953 3.56564 3.3067C3.68281 3.42388 3.74864 3.5828 3.74864 3.74851V5.98922L4.89125 4.8466C6.28473 3.44611 8.17723 2.65618 10.1529 2.65042H10.1943C12.1531 2.64537 14.035 3.41223 15.4325 4.7849C15.5466 4.90163 15.6105 5.05838 15.6105 5.22162C15.6105 5.38485 15.5466 5.5416 15.4325 5.65835C15.3184 5.77508 15.1632 5.84255 15 5.84629C14.8368 5.85003 14.6787 5.78977 14.5593 5.67837C13.3945 4.53504 11.8264 3.8962 10.1943 3.90002H10.1591C8.51292 3.90509 6.93598 4.56322 5.77457 5.72992L4.63195 6.87255H6.87267C7.03835 6.87255 7.19729 6.93836 7.31448 7.05555C7.43167 7.17273 7.49748 7.33161 7.49748 7.49736C7.49748 7.66305 7.43167 7.82198 7.31448 7.93917C7.19729 8.0563 7.03835 8.12217 6.87267 8.12217ZM16.8695 11.871H13.1207C12.955 11.871 12.7961 11.9368 12.6789 12.054C12.5617 12.1712 12.4959 12.33 12.4959 12.4958C12.4959 12.6615 12.5617 12.8204 12.6789 12.9376C12.7961 13.0547 12.955 13.1206 13.1207 13.1206H15.3614L14.2188 14.2632C13.0576 15.4297 11.481 16.0878 9.83504 16.0931H9.79985C8.16773 16.0969 6.5996 15.458 5.43483 14.3147C5.37663 14.2552 5.30712 14.2079 5.23039 14.1756C5.15365 14.1433 5.07124 14.1267 4.98799 14.1267C4.90474 14.1267 4.82232 14.1433 4.74559 14.1756C4.66886 14.2079 4.59936 14.2552 4.54117 14.3148C4.48298 14.3743 4.43728 14.4449 4.40675 14.5224C4.37622 14.5998 4.36147 14.6826 4.36338 14.7658C4.36529 14.849 4.38382 14.931 4.41787 15.007C4.45192 15.083 4.5008 15.1514 4.56166 15.2082C5.95909 16.5809 7.84104 17.3477 9.79985 17.3427H9.84048C11.8159 17.3367 13.708 16.5468 15.1014 15.1465L16.2447 14.0039V16.2446C16.2447 16.4103 16.3105 16.5692 16.4277 16.6864C16.5449 16.8036 16.7039 16.8694 16.8695 16.8694C17.0352 16.8694 17.1942 16.8036 17.3114 16.6864C17.4285 16.5692 17.4944 16.4103 17.4944 16.2446V12.4958C17.4944 12.33 17.4285 12.1712 17.3114 12.054C17.1942 11.9368 17.0352 11.871 16.8695 11.871Z" fill="#3B82F6"/>
</svg>
