<svg width="20" height="20" viewBox="0 0 20 20" fill="none" xmlns="http://www.w3.org/2000/svg">
<path d="M10.9342 9.99708C10.9342 10.1824 10.8792 10.3636 10.7762 10.5178C10.6732 10.6719 10.5269 10.792 10.3556 10.863C10.1844 10.9338 9.99593 10.9524 9.81411 10.9163C9.6323 10.8801 9.46536 10.7908 9.33424 10.6598C9.20318 10.5287 9.11393 10.3617 9.0778 10.1799C9.04161 9.99808 9.06018 9.80964 9.13111 9.63839C9.20205 9.46714 9.32218 9.32077 9.4763 9.21783C9.63043 9.11483 9.81161 9.05983 9.99699 9.05983C10.2456 9.05983 10.4839 9.15858 10.6597 9.33433C10.8354 9.51014 10.9342 9.74851 10.9342 9.99708ZM6.56055 9.05983C6.37518 9.05983 6.19398 9.11483 6.03986 9.21783C5.88574 9.32077 5.76561 9.46714 5.69468 9.63839C5.62375 9.80964 5.60518 9.99808 5.64135 10.1799C5.67751 10.3617 5.76677 10.5287 5.89784 10.6598C6.02891 10.7908 6.1959 10.8801 6.37768 10.9163C6.55949 10.9524 6.74793 10.9338 6.91918 10.863C7.09043 10.792 7.2368 10.6719 7.3398 10.5178C7.4428 10.3636 7.49774 10.1824 7.49774 9.99708C7.49774 9.74851 7.39899 9.51014 7.22324 9.33433C7.04749 9.15858 6.80911 9.05983 6.56055 9.05983ZM13.4334 9.05983C13.2481 9.05983 13.0669 9.11483 12.9127 9.21783C12.7586 9.32077 12.6385 9.46714 12.5676 9.63839C12.4966 9.80964 12.4781 9.99808 12.5142 10.1799C12.5504 10.3617 12.6396 10.5287 12.7707 10.6598C12.9017 10.7908 13.0687 10.8801 13.2506 10.9163C13.4324 10.9524 13.6208 10.9338 13.7921 10.863C13.9633 10.792 14.1097 10.6719 14.2127 10.5178C14.3156 10.3636 14.3706 10.1824 14.3706 9.99708C14.3706 9.74851 14.2719 9.51014 14.0961 9.33433C13.9204 9.15858 13.682 9.05983 13.4334 9.05983ZM18.1194 9.99708C18.1197 11.3994 17.757 12.7779 17.0664 13.9984C16.3759 15.219 15.3812 16.2399 14.1791 16.962C12.9769 17.684 11.6082 18.0825 10.2064 18.1186C8.80455 18.1548 7.41718 17.8273 6.17941 17.1683L3.52009 18.0547C3.29991 18.1281 3.06364 18.1388 2.83775 18.0855C2.61185 18.0321 2.40527 17.917 2.24115 17.7529C2.07703 17.5888 1.96187 17.3822 1.90856 17.1563C1.85525 16.9304 1.86591 16.6941 1.93933 16.474L2.82578 13.8146C2.24638 12.7253 1.92277 11.5183 1.87951 10.2852C1.83624 9.05214 2.07445 7.82545 2.57606 6.6982C3.07768 5.57094 3.8295 4.57277 4.77448 3.77947C5.71945 2.98615 6.83274 2.41855 8.0298 2.11973C9.22693 1.82092 10.4764 1.79875 11.6833 2.05491C12.8902 2.31107 14.0229 2.83881 14.9955 3.5981C15.968 4.35738 16.7547 5.32825 17.2961 6.43702C17.8374 7.54577 18.1189 8.76326 18.1194 9.99708ZM16.8698 9.99708C16.8696 8.94276 16.6267 7.90276 16.1601 6.95733C15.6936 6.01195 15.0157 5.18656 14.1791 4.54504C13.3425 3.90351 12.3695 3.46306 11.3354 3.25775C10.3014 3.05243 9.23393 3.08777 8.21568 3.361C7.19743 3.63425 6.25574 4.13808 5.46335 4.83351C4.67099 5.52895 4.04923 6.39733 3.64619 7.37151C3.24315 8.3457 3.06962 9.39951 3.13903 10.4515C3.20845 11.5035 3.51893 12.5254 4.04649 13.4381C4.09076 13.5148 4.11826 13.6 4.12714 13.688C4.13603 13.7761 4.12611 13.865 4.09803 13.949L3.12412 16.8699L6.04508 15.896C6.1087 15.8743 6.17546 15.8632 6.24268 15.8632C6.35243 15.8634 6.46018 15.8925 6.55505 15.9475C7.59993 16.5521 8.78555 16.8707 9.99261 16.8715C11.1997 16.8723 12.3857 16.5551 13.4314 15.9519C14.4769 15.3487 15.3452 14.4808 15.9489 13.4354C16.5524 12.3901 16.8701 11.2041 16.8698 9.99708Z" fill="#F59E0B"/>
</svg>
