<svg width="20" height="20" viewBox="0 0 20 20" fill="none" xmlns="http://www.w3.org/2000/svg">
<g clip-path="url(#clip0_601_6465)">
<path d="M19.1189 11.7458C19.0533 11.7951 18.9786 11.8309 18.8991 11.8513C18.8197 11.8716 18.7369 11.8761 18.6557 11.8645C18.5745 11.853 18.4964 11.8255 18.4258 11.7836C18.3551 11.7418 18.2934 11.6865 18.2443 11.6209C17.8676 11.1147 17.3774 10.704 16.8131 10.4218C16.2488 10.1396 15.6262 9.99396 14.9953 9.9964C14.8724 9.9964 14.7523 9.96015 14.6499 9.89221C14.5475 9.82427 14.4674 9.72771 14.4196 9.61446C14.3872 9.53758 14.3705 9.45502 14.3705 9.37158C14.3705 9.28815 14.3872 9.20558 14.4196 9.12871C14.4674 9.01552 14.5475 8.9189 14.6499 8.85096C14.7523 8.78302 14.8724 8.74677 14.9953 8.74677C15.3458 8.74677 15.6894 8.6484 15.9868 8.4629C16.2843 8.27746 16.5238 8.01227 16.6781 7.69746C16.8324 7.38271 16.8954 7.03096 16.8598 6.68215C16.8243 6.3334 16.6916 6.00161 16.4769 5.72447C16.2622 5.44733 15.9741 5.23595 15.6453 5.11434C15.3165 4.99273 14.9602 4.96578 14.6168 5.03653C14.2734 5.10728 13.9568 5.2729 13.7029 5.51459C13.4489 5.75627 13.2678 6.06433 13.1802 6.40377C13.1597 6.48327 13.1237 6.5579 13.0744 6.62352C13.025 6.68908 12.9632 6.74433 12.8924 6.78602C12.8218 6.82771 12.7435 6.85508 12.6623 6.86652C12.5809 6.87802 12.4982 6.87333 12.4187 6.85283C12.3393 6.83233 12.2646 6.7964 12.199 6.74702C12.1334 6.69765 12.0782 6.63583 12.0364 6.56508C11.9948 6.4944 11.9674 6.41615 11.9559 6.3349C11.9444 6.25358 11.9491 6.17085 11.9696 6.09137C12.0913 5.62067 12.3211 5.18485 12.6408 4.8186C12.9606 4.45235 13.3613 4.16578 13.8113 3.98168C14.2613 3.79758 14.7479 3.72103 15.2327 3.75813C15.7174 3.79524 16.1869 3.94497 16.6036 4.19541C17.0203 4.44585 17.3728 4.79008 17.633 5.20072C17.8933 5.61137 18.0541 6.07708 18.1027 6.56083C18.1513 7.04452 18.0863 7.53296 17.9129 7.98715C17.7395 8.44133 17.4626 8.84883 17.1039 9.17715C17.9536 9.54496 18.6921 10.1287 19.2463 10.8703C19.2955 10.9361 19.3313 11.011 19.3515 11.0906C19.3718 11.1703 19.3761 11.2532 19.3643 11.3345C19.3524 11.4158 19.3247 11.494 19.2826 11.5646C19.2405 11.6352 19.1849 11.6968 19.1189 11.7458ZM14.9109 16.5568C14.9561 16.628 14.9864 16.7075 15.0001 16.7906C15.0138 16.8738 15.0106 16.9588 14.9905 17.0407C14.9704 17.1225 14.9341 17.1995 14.8835 17.2669C14.8329 17.3343 14.7693 17.3908 14.6963 17.433C14.6234 17.4751 14.5426 17.5021 14.4589 17.5123C14.3753 17.5225 14.2904 17.5156 14.2096 17.4921C14.1286 17.4686 14.0533 17.429 13.9881 17.3756C13.9228 17.3223 13.8691 17.2563 13.83 17.1816C13.4364 16.5152 12.8759 15.9629 12.2036 15.5792C11.5314 15.1955 10.7708 14.9937 9.99682 14.9937C9.22282 14.9937 8.46219 15.1955 7.79 15.5792C7.11775 15.9629 6.55725 16.5152 6.16364 17.1816C6.12458 17.2563 6.07082 17.3223 6.0056 17.3756C5.94037 17.429 5.86502 17.4686 5.7841 17.4921C5.70317 17.5156 5.61832 17.5225 5.53467 17.5123C5.45102 17.5021 5.37028 17.4751 5.29733 17.433C5.22438 17.3908 5.1607 17.3343 5.11015 17.2669C5.05959 17.1995 5.0232 17.1225 5.00315 17.0407C4.9831 16.9588 4.97982 16.8738 4.99349 16.7906C5.00717 16.7075 5.03752 16.628 5.08273 16.5568C5.68848 15.5161 6.61207 14.697 7.71782 14.2201C7.09563 13.7437 6.63838 13.0843 6.41025 12.3346C6.18221 11.5849 6.1948 10.7825 6.44632 10.0404C6.69782 9.29821 7.17557 8.65346 7.81238 8.19683C8.44925 7.74027 9.21319 7.49465 9.99682 7.49465C10.7804 7.49465 11.5444 7.74027 12.1813 8.19683C12.8181 8.65346 13.2958 9.29821 13.5473 10.0404C13.7988 10.7825 13.8114 11.5849 13.5834 12.3346C13.3553 13.0843 12.898 13.7437 12.2758 14.2201C13.3816 14.697 14.3052 15.5161 14.9109 16.5568ZM9.99682 13.7452C10.4911 13.7452 10.9743 13.5986 11.3853 13.324C11.7963 13.0494 12.1166 12.6591 12.3058 12.2024C12.4949 11.7458 12.5444 11.2432 12.448 10.7585C12.3516 10.2736 12.1136 9.82833 11.764 9.47877C11.4145 9.12927 10.9692 8.89127 10.4844 8.79483C9.99957 8.6984 9.49707 8.7479 9.04038 8.93702C8.58375 9.12621 8.19344 9.44652 7.91882 9.85752C7.64419 10.2685 7.49763 10.7517 7.49763 11.246C7.49763 11.9088 7.76088 12.5445 8.22963 13.0132C8.69832 13.4819 9.334 13.7452 9.99682 13.7452ZM5.62319 9.37158C5.62319 9.2059 5.55736 9.04696 5.44018 8.92977C5.32301 8.81265 5.16409 8.74677 4.99838 8.74677C4.64781 8.74677 4.30427 8.6484 4.00679 8.4629C3.70931 8.27746 3.46981 8.01227 3.31549 7.69746C3.16118 7.38271 3.09823 7.03096 3.1338 6.68215C3.16938 6.3334 3.30205 6.00161 3.51674 5.72447C3.73143 5.44733 4.01954 5.23595 4.34835 5.11434C4.67715 4.99273 5.03347 4.96578 5.37683 5.03653C5.72018 5.10728 6.03682 5.2729 6.29075 5.51459C6.54469 5.75627 6.72582 6.06433 6.81344 6.40377C6.85488 6.56427 6.95838 6.70177 7.10119 6.78602C7.244 6.87021 7.41438 6.89427 7.57494 6.85283C7.73544 6.8114 7.87294 6.7079 7.95719 6.56508C8.04138 6.42233 8.06544 6.2519 8.024 6.09137C7.90238 5.62067 7.6725 5.18485 7.35282 4.8186C7.03307 4.45235 6.63232 4.16578 6.18235 3.98168C5.73239 3.79758 5.24567 3.72103 4.76092 3.75813C4.27617 3.79524 3.80677 3.94497 3.39008 4.19541C2.97338 4.44585 2.62088 4.79008 2.36063 5.20072C2.10038 5.61137 1.93956 6.07708 1.89097 6.56083C1.84238 7.04452 1.90735 7.53296 2.08073 7.98715C2.25411 8.44133 2.5311 8.84883 2.88967 9.17715C2.04093 9.54533 1.30322 10.129 0.74971 10.8703C0.650178 11.0029 0.607389 11.1696 0.630753 11.3337C0.654109 11.4978 0.741709 11.646 0.874278 11.7455C1.00685 11.845 1.17352 11.8878 1.33763 11.8644C1.50175 11.8411 1.64987 11.7535 1.7494 11.6209C2.12598 11.1147 2.61617 10.704 3.18048 10.4218C3.74479 10.1396 4.36747 9.99396 4.99838 9.9964C5.16409 9.9964 5.32301 9.93058 5.44018 9.8134C5.55736 9.69621 5.62319 9.53727 5.62319 9.37158Z" fill="#8B5CF6"/>
</g>
<defs>
<clipPath id="clip0_601_6465">
<rect width="20" height="20" fill="white"/>
</clipPath>
</defs>
</svg>
