<svg width="20" height="20" viewBox="0 0 20 20" fill="none" xmlns="http://www.w3.org/2000/svg">
<path d="M18.1194 16.2449C18.1194 16.4106 18.0536 16.5696 17.9364 16.6867C17.8192 16.8039 17.6604 16.8697 17.4946 16.8697H2.49932C2.33361 16.8697 2.17469 16.8039 2.05751 16.6867C1.94034 16.5696 1.87451 16.4106 1.87451 16.2449V3.74883C1.87451 3.58312 1.94034 3.4242 2.05751 3.30702C2.17469 3.18985 2.33361 3.12402 2.49932 3.12402C2.66502 3.12402 2.82395 3.18985 2.94112 3.30702C3.05829 3.4242 3.12412 3.58312 3.12412 3.74883V12.2376L7.05568 8.3052C7.11374 8.24714 7.18262 8.20101 7.25849 8.16957C7.33437 8.13814 7.41562 8.12195 7.49774 8.12195C7.57987 8.12195 7.66118 8.13814 7.73699 8.16957C7.81287 8.20101 7.88181 8.24714 7.93981 8.3052L9.99699 10.3631L14.1121 6.24805H12.4962C12.3305 6.24805 12.1716 6.18222 12.0544 6.06504C11.9372 5.94787 11.8714 5.78895 11.8714 5.62324C11.8714 5.45754 11.9372 5.29861 12.0544 5.18144C12.1716 5.06427 12.3305 4.99844 12.4962 4.99844H15.6202C15.7859 4.99844 15.9449 5.06427 16.062 5.18144C16.1792 5.29861 16.245 5.45754 16.245 5.62324V8.74726C16.245 8.91295 16.1792 9.07189 16.062 9.18907C15.9449 9.30626 15.7859 9.37207 15.6202 9.37207C15.4545 9.37207 15.2956 9.30626 15.1784 9.18907C15.0612 9.07189 14.9954 8.91295 14.9954 8.74726V7.13139L10.439 11.6885C10.381 11.7466 10.3121 11.7927 10.2362 11.8241C10.1604 11.8556 10.0791 11.8718 9.99699 11.8718C9.91487 11.8718 9.83356 11.8556 9.75768 11.8241C9.68187 11.7927 9.61293 11.7466 9.55493 11.6885L7.49774 9.63057L3.12412 14.0042V15.6201H17.4946C17.6604 15.6201 17.8192 15.6859 17.9364 15.8031C18.0536 15.9203 18.1194 16.0792 18.1194 16.2449Z" fill="#10B981"/>
</svg>
