<svg width="20" height="20" viewBox="0 0 20 20" fill="none" xmlns="http://www.w3.org/2000/svg">
<path fill-rule="evenodd" clip-rule="evenodd" d="M11.5272 3.32716C10.9272 2.02116 9.07216 2.02116 8.47316 3.32716C8.29633 3.71242 7.98039 4.01659 7.5887 4.17868C7.19701 4.34078 6.75852 4.3488 6.36116 4.20116C5.01416 3.70116 3.70116 5.01416 4.20116 6.36116C4.3488 6.75852 4.34078 7.19701 4.17868 7.5887C4.01659 7.98039 3.71242 8.29633 3.32716 8.47316C2.02116 9.07316 2.02116 10.9282 3.32716 11.5272C3.71242 11.704 4.01659 12.0199 4.17868 12.4116C4.34078 12.8033 4.3488 13.2418 4.20116 13.6392C3.70116 14.9862 5.01416 16.2982 6.36116 15.7992C6.75852 15.6515 7.19701 15.6595 7.5887 15.8216C7.98039 15.9837 8.29633 16.2879 8.47316 16.6732C9.07316 17.9792 10.9282 17.9792 11.5272 16.6732C11.704 16.2879 12.0199 15.9837 12.4116 15.8216C12.8033 15.6595 13.2418 15.6515 13.6392 15.7992C14.9862 16.2982 16.2992 14.9862 15.7992 13.6392C15.6515 13.2418 15.6595 12.8033 15.8216 12.4116C15.9837 12.0199 16.2879 11.704 16.6732 11.5272C17.9792 10.9272 17.9792 9.07216 16.6732 8.47316C16.2879 8.29633 15.9837 7.98039 15.8216 7.5887C15.6595 7.19701 15.6515 6.75852 15.7992 6.36116C16.2992 5.01416 14.9862 3.70116 13.6392 4.20116C13.2418 4.3488 12.8033 4.34078 12.4116 4.17868C12.0199 4.01659 11.704 3.71242 11.5272 3.32716ZM9.00016 8.25016C9.00016 8.51537 8.8948 8.76973 8.70726 8.95726C8.51973 9.1448 8.26537 9.25016 8.00016 9.25016C7.73494 9.25016 7.48059 9.1448 7.29305 8.95726C7.10551 8.76973 7.00016 8.51537 7.00016 8.25016C7.00016 7.98494 7.10551 7.73059 7.29305 7.54305C7.48059 7.35551 7.73494 7.25016 8.00016 7.25016C8.26537 7.25016 8.51973 7.35551 8.70726 7.54305C8.8948 7.73059 9.00016 7.98494 9.00016 8.25016ZM12.5302 8.78016L8.53016 12.7802C8.46149 12.8538 8.37869 12.9129 8.28669 12.9539C8.19469 12.9949 8.09538 13.017 7.99468 13.0187C7.89398 13.0205 7.79395 13.002 7.70056 12.9643C7.60717 12.9266 7.52234 12.8704 7.45112 12.7992C7.3799 12.728 7.32375 12.6431 7.28603 12.5498C7.24831 12.4564 7.22979 12.3563 7.23156 12.2556C7.23334 12.1549 7.25538 12.0556 7.29638 11.9636C7.33737 11.8716 7.39647 11.7888 7.47016 11.7202L11.4702 7.72016C11.5388 7.64647 11.6216 7.58737 11.7136 7.54638C11.8056 7.50538 11.9049 7.48334 12.0056 7.48156C12.1063 7.47979 12.2064 7.49831 12.2998 7.53603C12.3931 7.57375 12.478 7.6299 12.5492 7.70112C12.6204 7.77234 12.6766 7.85717 12.7143 7.95056C12.752 8.04395 12.7705 8.14398 12.7687 8.24468C12.767 8.34538 12.7449 8.44469 12.7039 8.53669C12.6629 8.62869 12.6038 8.71149 12.5302 8.78016ZM13.0002 12.2502C13.0002 12.5154 12.8948 12.7697 12.7073 12.9573C12.5197 13.1448 12.2654 13.2502 12.0002 13.2502C11.7349 13.2502 11.4806 13.1448 11.293 12.9573C11.1055 12.7697 11.0002 12.5154 11.0002 12.2502C11.0002 11.9849 11.1055 11.7306 11.293 11.543C11.4806 11.3555 11.7349 11.2502 12.0002 11.2502C12.2654 11.2502 12.5197 11.3555 12.7073 11.543C12.8948 11.7306 13.0002 11.9849 13.0002 12.2502Z" fill="#4A4A4A"/>
</svg>
