<svg xmlns="http://www.w3.org/2000/svg" width="39" height="51" viewBox="0 0 39 51" fill="none">
<g filter="url(#filter0_d_601_6415)">
<path d="M33.8867 4.50769C33.9733 4.50015 33.9852 4.49234 34.0671 4.51484C34.0624 4.57731 34.0389 4.62325 33.9952 4.66928C33.7946 4.87044 33.5996 5.09053 33.3971 5.28828C32.2774 6.38065 31.2721 7.44234 30.2961 8.66628C26.8921 12.9351 24.0606 17.6182 22.3791 22.838C20.8036 27.7282 20.3621 32.7538 20.7478 37.8592C20.8981 39.751 21.1379 41.6348 21.4665 43.5042C21.5492 43.9876 22.1523 45.8776 21.699 46.1142C21.5734 46.131 21.4694 46.0945 21.3579 46.0351C20.7677 45.7217 20.1906 45.2392 19.6581 44.8432C16.1301 42.2185 13.8912 38.2988 12.5227 34.1857C12.1972 33.2073 11.7503 31.8263 11.875 30.7817C11.9208 30.3982 12.1747 29.7307 12.3261 29.3538C12.5885 28.7101 12.8724 28.0751 13.1773 27.4504C14.794 23.9569 17.5997 20.5314 19.9912 17.531C19.0608 17.7452 17.778 18.243 16.8619 18.5692C14.0502 19.5551 11.2882 20.6775 8.58568 21.9322C8.11084 22.1514 5.08662 23.6872 4.80459 23.6867C4.74459 23.6865 4.6428 23.6687 4.60549 23.6161C4.30393 23.1908 4.7423 18.2251 4.7664 17.3928C4.8019 16.1684 4.74115 14.9424 4.81459 13.7185C4.82055 13.7116 4.82634 13.7045 4.83249 13.6978C5.33802 13.1455 6.2263 12.5958 6.86649 12.1935C12.7586 8.49131 21.8825 6.35109 28.7677 5.20706C29.8289 5.02928 30.893 4.86853 31.9596 4.72487C32.5661 4.64268 33.2846 4.53756 33.8867 4.50769Z" fill="#EBEBEB"/>
</g>
<defs>
<filter id="filter0_d_601_6415" x="0" y="0" width="38.5669" height="50.6182" filterUnits="userSpaceOnUse" color-interpolation-filters="sRGB">
<feFlood flood-opacity="0" result="BackgroundImageFix"/>
<feColorMatrix in="SourceAlpha" type="matrix" values="0 0 0 0 0 0 0 0 0 0 0 0 0 0 0 0 0 0 127 0" result="hardAlpha"/>
<feOffset/>
<feGaussianBlur stdDeviation="2.25"/>
<feComposite in2="hardAlpha" operator="out"/>
<feColorMatrix type="matrix" values="0 0 0 0 0.647059 0 0 0 0 0.419608 0 0 0 0 0.0588235 0 0 0 1 0"/>
<feBlend mode="normal" in2="BackgroundImageFix" result="effect1_dropShadow_601_6415"/>
<feBlend mode="normal" in="SourceGraphic" in2="effect1_dropShadow_601_6415" result="shape"/>
</filter>
</defs>
</svg>

