<svg width="20" height="20" viewBox="0 0 20 20" fill="none" xmlns="http://www.w3.org/2000/svg">
  <circle cx="10" cy="10" r="10" fill="white"/>
  <path fill-rule="evenodd" clip-rule="evenodd" d="M15.7102 5.15545C15.7878 5.21618 15.8526 5.29158 15.901 5.37737C15.9494 5.46317 15.9805 5.55765 15.9924 5.65544C16.0043 5.75323 15.9967 5.85239 15.9703 5.94726C15.9438 6.04213 15.899 6.1309 15.8383 6.20826L8.90925 15.0545L8.89925 15.0675C8.85425 15.1245 8.79525 15.2015 8.73625 15.2645C8.63128 15.3809 8.50043 15.4709 8.35425 15.5275C8.12374 15.6138 7.86953 15.6119 7.64025 15.5225C7.49425 15.4643 7.36409 15.3724 7.26025 15.2545C8.45198 15.1851 8.39525 15.1135 8.34025 15.0425L5.40825 11.2025C5.28758 11.0443 5.23472 10.8446 5.26123 10.6474C5.28774 10.4501 5.39154 10.2716 5.54975 10.1509C5.70796 10.0303 5.90766 9.97741 6.10491 10.0039C6.30216 10.0304 6.48066 10.1342 6.60125 10.2925L8.00825 12.2725L13.4083 5.28345C13.5309 5.12712 13.7105 5.02583 13.9078 5.00147C14.105 4.97711 14.3048 5.03196 14.4633 5.15545Z" fill="#272727"/>
</svg>

