<svg xmlns="http://www.w3.org/2000/svg" width="12" height="12" viewBox="0 0 12 12" fill="none">
<path d="M4.26672 7.73297L0.823592 6.46422C0.728652 6.42917 0.646735 6.36587 0.588877 6.28284C0.531019 6.19981 0.5 6.10104 0.5 5.99984C0.5 5.89864 0.531019 5.79987 0.588877 5.71684C0.646735 5.63381 0.728652 5.57051 0.823592 5.53547L4.26672 4.26672L5.53547 0.823591C5.57051 0.728652 5.63381 0.646735 5.71684 0.588877C5.79987 0.531019 5.89864 0.5 5.99984 0.5C6.10104 0.5 6.19981 0.531019 6.28284 0.588877C6.36587 0.646735 6.42917 0.728652 6.46422 0.823591L7.73297 4.26672L11.1761 5.53547C11.271 5.57051 11.3529 5.63381 11.4108 5.71684C11.4687 5.79987 11.4997 5.89864 11.4997 5.99984C11.4997 6.10104 11.4687 6.19981 11.4108 6.28284C11.3529 6.36587 11.271 6.42917 11.1761 6.46422L7.73297 7.73297L6.46422 11.1761C6.42917 11.271 6.36587 11.3529 6.28284 11.4108C6.19981 11.4687 6.10104 11.4997 5.99984 11.4997C5.89864 11.4997 5.79987 11.4687 5.71684 11.4108C5.63381 11.3529 5.57051 11.271 5.53547 11.1761L4.26672 7.73297Z" stroke="#FFBF00" stroke-linecap="round" stroke-linejoin="round"/>
</svg>

