<svg xmlns="http://www.w3.org/2000/svg" width="16" height="16" viewBox="0 0 16 16" fill="none">
<path fill-rule="evenodd" clip-rule="evenodd" d="M12.5682 4.12436C12.6302 4.17294 12.6821 4.23327 12.7208 4.3019C12.7595 4.37053 12.7844 4.44612 12.7939 4.52435C12.8034 4.60257 12.7974 4.68191 12.7762 4.75781C12.7551 4.83372 12.7192 4.90472 12.6706 4.96676L7.1274 12.0436L7.1194 12.054C7.0834 12.0996 7.0362 12.1612 6.989 12.2116C6.90502 12.3047 6.80034 12.3767 6.6834 12.422C6.49899 12.491 6.29562 12.4895 6.1122 12.418C5.99542 12.3714 5.89127 12.2979 5.8082 12.2036C5.76159 12.1481 5.71624 12.0915 5.6722 12.034L3.3266 8.96196C3.23006 8.8354 3.18775 8.67567 3.20898 8.51791C3.23021 8.36016 3.31323 8.2173 3.4398 8.12076C3.56636 8.02422 3.72608 7.98191 3.88384 8.00314C4.0416 8.02437 4.18446 8.1074 4.281 8.23396L6.4066 11.018L11.7266 4.22676C11.8247 4.10169 11.9684 4.02066 12.1262 4.00147C12.284 3.98227 12.443 4.02646 12.5682 4.12436Z" fill="#EBEBEB"/>
</svg>

